<svg xmlns="http://www.w3.org/2000/svg" xmlns:xlink="http://www.w3.org/1999/xlink" width="20" height="20" viewBox="0 0 20 20"><defs><path id="vc6fa" d="M462.64 4038.66l-2.47-2.48c-.5-.49-1.3-.47-1.82.04l-1.24 1.24-.25-.13a12.36 12.36 0 0 1-3-2.17 12.46 12.46 0 0 1-2.3-3.25l.84-.84.41-.41a1.3 1.3 0 0 0 .03-1.82l-2.47-2.48c-.49-.5-1.3-.48-1.81.04l-.7.7.02.02a4.03 4.03 0 0 0-.83 2.04c-.32 2.71.91 5.2 4.27 8.55 4.63 4.65 8.37 4.3 8.53 4.28a4.18 4.18 0 0 0 2.04-.83l.01.01.7-.69c.52-.5.53-1.33.04-1.82z"/></defs><g><g transform="translate(-445 -4024)"><use fill="#186db9" xlink:href="#vc6fa"/></g></g></svg>