<svg xmlns="http://www.w3.org/2000/svg" xmlns:xlink="http://www.w3.org/1999/xlink" width="18" height="18" viewBox="0 0 18 18"><defs><path id="oddta" d="M459.19 3947.31h-.94a1.88 1.88 0 0 1-1.88-1.87v-.6c.42-.5.72-1.08.9-1.7.02-.1.12-.15.19-.22.36-.36.43-.97.16-1.4-.04-.07-.1-.12-.1-.2v-1.65a2.75 2.75 0 0 0-.67-1.85c-.38-.4-.9-.63-1.42-.73a4.73 4.73 0 0 0-2.04.05c-.58.14-1.12.48-1.46.98-.3.43-.42.96-.45 1.48v1.69c.01.1-.08.18-.13.28-.25.46-.14 1.08.27 1.42.1.07.12.2.16.31.18.56.47 1.07.84 1.51v.63c0 1.03-.83 1.87-1.87 1.87h-.94s-1.7.47-2.81 2.81v.94c0 .52.42.94.94.94h13.12c.52 0 .94-.42.94-.94v-.94c-1.11-2.34-2.81-2.8-2.81-2.8z"/></defs><g><g transform="translate(-445 -3935)"><use fill="#186db9" xlink:href="#oddta"/></g></g></svg>